<svg xmlns="http://www.w3.org/2000/svg" viewBox="0 0 224 46" color="#1F5C0E" role="img" aria-label="LLMantis">
<title>LLMantis</title>
<g transform="translate(1 1) scale(0.11)">
  <g fill="none" stroke="currentColor">
    <circle cx="200" cy="200" r="196" stroke-width="10"/>
    <circle cx="200" cy="200" r="176" stroke-width="6"/>
  </g>
  <g fill="currentColor" transform="translate(132.50 139.93) scale(1.35)"><path fill-rule="evenodd" d="M 50 29 C 44 27, 30 26, 18 27 C 12 27.5, 9 31, 10 37 C 12 51, 22 68, 34 78 C 38 82, 44 86, 50 87 C 56 86, 62 82, 66 78 C 78 68, 88 51, 90 37 C 91 31, 88 27.5, 82 27 C 70 26, 56 27, 50 29 Z M 18.5 31.28 a 14 8.5 50 1 0 18 21.44 a 14 8.5 50 1 0 -18 -21.44 Z M 63.5 52.72 a 14 8.5 -50 1 0 18 -21.44 a 14 8.5 -50 1 0 -18 21.44 Z"/>
    <path d="M 44 31 C 36 22, 24 12, 6 2 C 21 13, 34 24, 46.5 34.5 Z"/>
    <path d="M 56 31 C 64 22, 76 12, 94 2 C 79 13, 66 24, 53.5 34.5 Z"/></g>
</g>
<g fill="currentColor" transform="translate(60 32)"><path d="M2.05 0.00V-24.74H6.45V-3.80H17.92V0.00Z M21.94 0.00V-24.74H26.34V-3.80H37.81V0.00Z M41.84 0.00V-24.74H48.16L52.97 -11.73Q53.21 -11.03 53.54 -10.01Q53.87 -9.00 54.22 -7.89Q54.57 -6.78 54.87 -5.78Q55.18 -4.78 55.36 -4.11H54.28Q54.47 -4.78 54.77 -5.78Q55.06 -6.78 55.41 -7.89Q55.75 -9.00 56.08 -10.01Q56.41 -11.03 56.63 -11.73L61.38 -24.74H67.71V0.00H63.39V-12.62Q63.39 -13.44 63.41 -14.51Q63.43 -15.57 63.47 -16.76Q63.50 -17.95 63.53 -19.17Q63.56 -20.39 63.57 -21.49H64.12Q63.73 -20.24 63.33 -18.95Q62.92 -17.67 62.55 -16.48Q62.17 -15.29 61.85 -14.31Q61.53 -13.32 61.28 -12.62L56.57 0.00H52.99L48.24 -12.62Q48.00 -13.32 47.66 -14.31Q47.33 -15.29 46.95 -16.48Q46.56 -17.67 46.14 -18.95Q45.73 -20.24 45.31 -21.49H45.99Q46.01 -20.39 46.03 -19.17Q46.06 -17.95 46.09 -16.76Q46.13 -15.57 46.15 -14.51Q46.17 -13.44 46.17 -12.62V0.00Z M78.18 0.28Q76.43 0.28 75.06 -0.30Q73.70 -0.89 72.91 -2.06Q72.12 -3.23 72.12 -4.98Q72.12 -6.47 72.68 -7.45Q73.24 -8.42 74.21 -9.00Q75.17 -9.58 76.42 -9.89Q77.66 -10.19 79.01 -10.33Q80.64 -10.52 81.59 -10.65Q82.54 -10.79 82.95 -11.07Q83.36 -11.35 83.36 -11.94V-12.07Q83.36 -12.83 82.98 -13.40Q82.60 -13.98 81.88 -14.30Q81.17 -14.63 80.16 -14.63Q79.15 -14.63 78.38 -14.31Q77.61 -13.98 77.16 -13.41Q76.71 -12.83 76.64 -12.08H72.61Q72.72 -13.83 73.66 -15.13Q74.61 -16.43 76.28 -17.16Q77.96 -17.89 80.26 -17.89Q81.96 -17.89 83.31 -17.48Q84.66 -17.06 85.60 -16.29Q86.54 -15.51 87.03 -14.42Q87.51 -13.32 87.51 -11.95V0.00H83.40V-2.48H83.33Q82.92 -1.70 82.26 -1.07Q81.60 -0.44 80.60 -0.08Q79.61 0.28 78.18 0.28ZM79.21 -2.82Q80.57 -2.82 81.51 -3.32Q82.44 -3.81 82.91 -4.64Q83.39 -5.47 83.39 -6.49V-8.39Q83.19 -8.26 82.81 -8.15Q82.43 -8.03 81.91 -7.93Q81.39 -7.82 80.78 -7.72Q80.17 -7.62 79.52 -7.53Q78.63 -7.40 77.87 -7.11Q77.12 -6.82 76.66 -6.31Q76.20 -5.81 76.20 -5.01Q76.20 -4.33 76.57 -3.84Q76.94 -3.34 77.62 -3.08Q78.30 -2.82 79.21 -2.82Z M96.61 -9.91V0.00H92.42V-17.53H96.54V-13.07H95.72Q96.57 -15.42 98.10 -16.65Q99.64 -17.89 101.93 -17.89Q103.77 -17.89 105.18 -17.09Q106.58 -16.30 107.38 -14.75Q108.18 -13.21 108.18 -10.95V0.00H103.98V-10.29Q103.98 -12.22 103.06 -13.21Q102.13 -14.21 100.45 -14.21Q99.35 -14.21 98.48 -13.76Q97.61 -13.31 97.11 -12.36Q96.61 -11.41 96.61 -9.91Z M122.35 -17.53V-14.16H111.52V-17.53ZM114.58 -22.31H118.77V-5.03Q118.77 -4.10 119.16 -3.73Q119.54 -3.37 120.56 -3.37Q120.96 -3.37 121.49 -3.37Q122.02 -3.37 122.35 -3.37V0.00Q121.91 0.00 121.21 0.00Q120.51 0.00 119.82 0.00Q117.14 0.00 115.86 -1.08Q114.58 -2.17 114.58 -4.42Z M126.18 0.00V-17.53H130.37V0.00ZM128.27 -20.14Q127.20 -20.14 126.48 -20.82Q125.76 -21.51 125.76 -22.52Q125.76 -23.54 126.48 -24.22Q127.20 -24.90 128.26 -24.90Q129.34 -24.90 130.06 -24.22Q130.77 -23.54 130.77 -22.52Q130.77 -21.51 130.06 -20.82Q129.34 -20.14 128.27 -20.14Z M142.17 0.42Q140.03 0.42 138.33 -0.25Q136.64 -0.93 135.62 -2.23Q134.59 -3.53 134.45 -5.42H138.59Q138.73 -4.14 139.63 -3.43Q140.53 -2.72 142.09 -2.72Q143.61 -2.72 144.48 -3.32Q145.35 -3.92 145.35 -4.85Q145.35 -5.65 144.71 -6.13Q144.06 -6.61 142.95 -6.84L139.96 -7.46Q137.45 -7.99 136.15 -9.26Q134.85 -10.54 134.85 -12.52Q134.85 -14.13 135.72 -15.34Q136.59 -16.56 138.18 -17.24Q139.77 -17.91 141.92 -17.91Q144.04 -17.91 145.66 -17.20Q147.27 -16.49 148.19 -15.18Q149.12 -13.88 149.17 -12.08H145.23Q145.21 -13.24 144.33 -14.01Q143.44 -14.78 142.01 -14.78Q140.64 -14.78 139.83 -14.17Q139.03 -13.55 139.03 -12.66Q139.03 -11.87 139.65 -11.38Q140.27 -10.88 141.36 -10.64L144.52 -9.99Q147.13 -9.44 148.36 -8.27Q149.59 -7.09 149.59 -5.17Q149.59 -3.46 148.64 -2.20Q147.69 -0.95 146.01 -0.27Q144.33 0.42 142.17 0.42Z"/></g>
</svg>
